<svg id="SvgjsSvg1001" width="288" height="288" xmlns="http://www.w3.org/2000/svg" version="1.1" xmlns:xlink="http://www.w3.org/1999/xlink" xmlns:svgjs="http://svgjs.com/svgjs"><defs id="SvgjsDefs1002"></defs><g id="SvgjsG1008" transform="matrix(1,0,0,1,0,0)"><svg xmlns="http://www.w3.org/2000/svg" width="288" height="288" version="1.0" viewBox="0 0 321 319"><g transform="matrix(.1 0 0 -.1 0 319)" fill="#886c53" class="color000 svgShape"><path d="M1401 2744 c-70 -15 -221 -67 -313 -106 -32 -14 -97 -56 -144 -94-47 -38 -100 -80 -117 -94 -51 -40 -141 -140 -184 -205 -77 -114 -114 -202
-180 -420 -22 -75 -25 -375 -5 -470 18 -80 70 -240 95 -290 74 -149 287 -387
431 -484 25 -17 -12 25 -106 119 -65 66 -139 165 -170 230 -137 281 -169 429
-149 686 17 218 36 295 111 444 56 111 130 221 199 294 100 105 239 215 333
262 92 46 234 84 313 83 40 0 39 0 -48 -44 -48 -25 -108 -60 -134 -80 -25 -19
-50 -35 -54 -35 -5 0 -25 -26 -46 -57 -35 -54 -38 -63 -37 -127 2 -57 -2 -73
-19 -90 -16 -17 -19 -18 -14 -3 4 9 2 17 -3 17 -5 0 -23 -30 -40 -66 -44 -92
-45 -172 -3 -265 18 -38 33 -93 37 -131 8 -76 11 -73 -113 -138 -83 -44 -86
-47 -89 -83 l-3 -38 32 28 c17 15 37 33 43 39 6 6 34 19 61 29 67 25 88 45
104 102 l13 48 20 -44 c13 -29 17 -50 12 -58 -5 -8 -50 -33 -101 -56 -133 -61
-153 -79 -153 -137 0 -26 11 -85 24 -131 37 -132 38 -138 7 -167 l-26 -25 25
7 c14 3 38 9 53 13 15 3 33 15 39 27 6 11 17 26 23 31 7 6 15 46 18 91 4 44
11 93 17 109 l11 29 -22 -19 c-27 -25 -51 -79 -43 -99 4 -11 0 -16 -10 -16
-12 0 -15 6 -11 25 3 14 7 36 10 50 3 14 10 23 15 20 6 -3 10 0 10 8 0 41 109
97 189 97 33 0 55 -5 178 -42 42 -12 44 -11 76 20 18 18 36 32 39 32 3 0 8
-13 12 -30 6 -34 17 -37 40 -14 16 16 23 104 9 104 -5 0 -21 -9 -38 -20 -91
-62 -175 -66 -175 -8 0 9 -8 22 -17 27 -10 5 -29 31 -43 58 -13 26 -35 57 -48
69 -21 19 -24 32 -27 110 -3 68 -12 114 -39 198 -42 126 -40 116 -22 116 7 0
21 -11 30 -25 22 -33 141 -121 242 -179 160 -91 213 -183 215 -375 1 -94 1
-95 14 -56 27 81 11 205 -35 267 -26 36 -25 48 3 48 34 0 113 -55 139 -98 20
-32 23 -50 23 -144 0 -58 -2 -105 -5 -103 -3 2 -5 -19 -5 -45 0 -53 4 -54 22
-7 12 31 12 30 7 -15 -3 -26 -1 -54 5 -65 9 -16 10 -15 11 8 0 15 13 80 30
145 40 158 39 169 -14 242 -24 33 -49 63 -55 66 -17 11 -13 26 7 26 10 0 35
-18 56 -39 22 -23 52 -42 70 -45 47 -9 73 -30 59 -47 -9 -11 -5 -20 16 -42 16
-15 37 -44 47 -65 10 -20 27 -50 37 -65 11 -15 17 -37 14 -47 -3 -12 7 -33 29
-57 18 -21 33 -33 34 -27 0 5 -14 24 -30 41 -20 20 -26 33 -18 35 9 3 8 12 -4
37 -15 32 -14 66 2 76 5 3 20 6 34 7 14 1 26 7 27 13 0 5 2 20 3 32 1 12 -2
19 -7 16 -5 -3 -7 3 -3 13 6 20 -33 140 -57 177 -8 12 -56 44 -108 70 l-94 48
-215 13 c-189 12 -221 16 -260 36 -109 55 -218 139 -242 185 -6 11 9 1 33 -21
53 -50 144 -112 173 -119 70 -16 232 -39 386 -55 116 -11 221 -39 254 -67 21
-18 21 -18 3 4 -41 48 -131 72 -370 98 -91 10 -176 25 -219 40 -77 26 -174 81
-183 103 -3 9 8 4 27 -10 86 -65 186 -94 397 -113 229 -21 321 -48 394 -114
20 -19 26 -21 22 -8 -10 26 -2 21 24 -14 19 -25 21 -33 10 -40 -11 -7 -10 -9
3 -9 13 0 23 -19 38 -72 42 -146 56 -182 70 -186 13 -5 13 -3 1 11 -7 10 -10
17 -5 17 4 0 3 5 -4 12 -18 18 -15 55 6 62 38 13 80 52 72 67 -5 8 -7 37 -5
64 3 68 -36 226 -63 253 -9 10 -33 38 -52 62 -19 25 -38 47 -42 48 -5 2 -8 11
-8 19 0 18 138 -123 182 -187 18 -25 35 -47 39 -50 4 -3 9 -58 11 -123 l3
-118 99 -50 c55 -27 105 -57 113 -67 31 -39 81 -151 93 -207 18 -90 23 -95 31
-35 24 187 4 362 -67 560 -101 284 -360 560 -636 676 -162 69 -251 86 -458 90
-137 2 -202 -1 -249 -12z m383 -175 c64 -12 170 -69 224 -119 24 -22 62 -50
85 -62 55 -28 30 -36 -28 -9 -25 12 -47 21 -50 21 -2 0 -44 24 -92 53 -48 28
-127 65 -174 81 -77 26 -94 28 -175 23 -51 -3 -114 -14 -148 -26 -65 -23 -91
-26 -81 -11 8 13 127 48 200 59 65 9 161 5 239 -10z m-462 -128 c6 -10 17 -17
24 -14 13 5 56 -22 115 -73 31 -27 54 -35 153 -53 64 -13 136 -24 159 -26 84
-7 163 -18 212 -30 76 -19 193 -61 221 -80 37 -24 20 -35 -23 -14 -54 26 -311
86 -418 98 -106 11 -318 57 -357 77 -16 8 -48 35 -73 60 -25 25 -50 42 -55 39
-6 -3 -10 0 -10 8 0 32 34 37 52 8z m-52 -116 l19 -38 -27 24 c-36 33 -41 40
-35 56 7 18 18 7 43 -42z m1050 -381 c0 -2 -9 -4 -20 -4 -11 0 -20 4 -20 9 0
5 9 7 20 4 11 -3 20 -7 20 -9z m385 -234 c3 -5 1 -10 -4 -10 -6 0 -11 5 -11
10 0 6 2 10 4 10 3 0 8 -4 11 -10z m99 -33 c3 3 6 -8 6 -26 0 -24 -3 -29 -12
-21 -7 6 -22 17 -32 24 -24 17 -13 40 13 26 10 -5 21 -6 25 -3z m-1687 -399
c-3 -8 -6 -5 -6 6 -1 11 2 17 5 13 3 -3 4 -12 1 -19z" fill="#886c53" class="color000 svgShape"></path><path d="M1658 2043c7-3 16-2 19 1 4 3-2 6-13 5-11 0-14-3-6-6zM2025 1697c-9-34 4-83 47-174 20-41 34-60 39-52 4 7 1 19-7 26-8 8-11 19-8 24 3 6-6 28-21 50-18 25-30 58-35 96-6 52-7 55-15 30zM2350 1618c0-2 14-20 31-39 17-19 27-25 21-14-10 20-52 63-52 53zM2415 1487c30-21 200-70 233-66 14 1-132 49-151 49-10 0-16 4-13 8 2 4-3 8-12 8-9 0-30 4-47 8-28 7-29 6-10-7zM1750 1394c0-13 18-39 24-34 2 3-2 14-10 24-8 11-14 16-14 10zM1840 1340c0-6-7-10-16-10-11 0-13-6-8-22 4-13 10-41 14-63 4-32 9-40 25-38 11 1 22-3 26-8 3-6 6 6 7 26 1 20 4 41 8 47 4 6 8 25 10 43 2 30 0 32-32 33-19 1-34-3-34-8zM2125 1260c10-11 23-20 28-20 6 0 2 9-8 20-10 11-23 20-28 20-6 0-2-9 8-20zM2311 1259c24-17 123-66 146-73 12-4 38 0 58 9 32 13 35 17 25 30-7 8-27 15-44 15-17 0-47 4-66 9-54 14-135 20-119 10zM2132 1168c-42-43-42-43-118-43l-75 0 26-22c36-32 68-37 121-23 60 17 104 59 104 99 0 17-3 31-8 31-4 0-26-19-50-42zM1111 1163c-18-17-20-23-9-23 17 0 42 25 36 37-1 4-14-2-27-14zM1338 1128c-31-26-48-63-48-108 0-42 24-158 35-169 3-2 51-8 108-12 78-6 125-15 199-42 107-38 213-94 242-126 24-27 58-27 74-1 10 16 9 33-8 92-11 40-26 91-34 113-8 22-15 57-16 78 0 35 2 37 32 37 25 0 29 3 20 12-20 20-227 23-296 5-67-18-71-17-156 48-56 43-120 85-131 85-3 0-12-6-21-12zm70-185c3-23-13-35-60-47-35-8-36 8-5 47 26 32 61 33 65 0zM2260 559c-22-18-22-19-3-10 12 6 25 16 28 21 9 15 3 12-25-11zM1025 550c7-11 65-43 65-36 0 2-16 13-36 25-19 12-32 16-29 11z" fill="#886c53" class="color000 svgShape"></path></g></svg></g></svg>