<svg width="108" height="108" viewBox="0 0 108 108" fill="none" xmlns="http://www.w3.org/2000/svg">
<path d="M0 108V0H108V108H0Z" fill="#1B1918"/>
<path d="M2.34436 2.3444H105.656V105.656H2.34436V2.3444Z" fill="white"/>
<path d="M18.4493 47.3346V18.4812H23.1386V43.1361H33.6263V47.3341H18.4493V47.3346ZM45.5188 18.4812H50.1475V35.999C50.1475 38.602 50.7462 40.5535 51.9503 41.865C53.1548 43.17 54.9506 43.8229 57.3388 43.8229C59.7205 43.8229 61.5099 43.17 62.7144 41.865C63.9184 40.5535 64.5172 38.602 64.5172 35.999V18.4812H69.206V36.4362C69.206 40.3382 68.2238 43.258 66.2529 45.1951C64.282 47.1327 61.3085 48.1015 57.3463 48.1015C53.3776 48.1015 50.4106 47.1327 48.4531 45.202C46.4951 43.2714 45.5198 40.3516 45.5198 36.4362V18.4812H45.5188ZM84.6644 47.3346V18.4812H89.3532V47.3346H84.6644Z" fill="#1B1918"/>
<path d="M18.6011 82.238L22.3415 80.5088C22.6981 81.7939 23.3505 82.7761 24.2925 83.4485C25.2409 84.1278 26.4524 84.4645 27.9185 84.4645C29.311 84.4645 30.421 84.0746 31.2421 83.3008C32.0622 82.5269 32.473 81.491 32.473 80.1925C32.473 78.4976 31.0671 76.9837 28.2557 75.6588C27.8583 75.4634 27.5624 75.3157 27.3476 75.2281C24.1721 73.6745 22.053 72.275 20.9967 71.0168C19.9404 69.7655 19.4092 68.2253 19.4092 66.4155C19.4092 64.0612 20.2094 62.1569 21.8039 60.6972C23.3983 59.2376 25.4905 58.511 28.0801 58.511C30.2057 58.511 31.9886 58.9213 33.4214 59.7419C34.8542 60.5625 35.8434 61.7466 36.3949 63.2804L32.7286 65.1712C32.1497 64.2626 31.5171 63.6036 30.8249 63.1869C30.1386 62.7627 29.3443 62.5543 28.4501 62.5543C27.1924 62.5543 26.1898 62.884 25.4498 63.537C24.7033 64.1959 24.3333 65.0777 24.3333 66.1803C24.3333 67.916 25.961 69.5303 29.224 71.0237C29.4726 71.1446 29.6681 71.2391 29.8093 71.2998C32.6615 72.6182 34.6195 73.9028 35.6887 75.1545C36.752 76.4123 37.2832 77.9799 37.2832 79.8568C37.2832 82.5876 36.4223 84.7609 34.7 86.3688C32.9778 87.9766 30.6573 88.7838 27.724 88.7838C25.2682 88.7838 23.2575 88.2183 21.6835 87.0884C20.1144 85.9585 19.0855 84.3442 18.6011 82.238ZM45.1961 82.238L48.9365 80.5088C49.2926 81.7939 49.9451 82.7761 50.887 83.4485C51.8354 84.1278 53.0469 84.4645 54.513 84.4645C55.9056 84.4645 57.0156 84.0746 57.8367 83.3008C58.6578 82.5269 59.0676 81.491 59.0676 80.1925C59.0676 78.4976 57.6621 76.9837 54.8502 75.6588C54.4529 75.4634 54.157 75.3157 53.9421 75.2281C50.7667 73.6745 48.6476 72.275 47.5913 71.0168C46.5349 69.7655 46.0038 68.2253 46.0038 66.4155C46.0038 64.0612 46.8045 62.1569 48.3984 60.6972C49.9928 59.2376 52.0851 58.511 54.6752 58.511C56.8008 58.511 58.5832 58.9213 60.0165 59.7419C61.4493 60.5625 62.438 61.7466 62.99 63.2804L59.3237 65.1712C58.7453 64.2626 58.1122 63.6036 57.4199 63.1869C56.7336 62.7627 55.9399 62.5543 55.0452 62.5543C53.7874 62.5543 52.7848 62.884 52.0453 63.537C51.2983 64.1959 50.9283 65.0777 50.9283 66.1803C50.9283 67.916 52.5561 69.5303 55.819 71.0237C56.0682 71.1446 56.2636 71.2391 56.4044 71.2998C59.2566 72.6182 61.2145 73.9028 62.2838 75.1545C63.3471 76.4123 63.8782 77.9799 63.8782 79.8568C63.8782 82.5876 63.0173 84.7609 61.2951 86.3688C59.5729 87.9766 57.2523 88.7838 54.3196 88.7838C51.8638 88.7838 49.8526 88.2183 48.2786 87.0884C46.71 85.9585 45.6805 84.3442 45.1961 82.238ZM73.4463 88.0169V59.1635H89.5512V63.1461H78.1351V70.3777H89.5512V74.4946H78.1351V83.8185H89.5512V88.0164H73.4463V88.0169Z" fill="#1B1918"/>
</svg>
