<?xml version="1.0" encoding="utf-8"?>
<svg version="1.0" width="407.000000pt" height="251.000000pt" viewBox="0 0 407.000000 251.000000" preserveAspectRatio="xMidYMid meet" xmlns="http://www.w3.org/2000/svg">
  <g transform="translate(0.000000,251.000000) scale(0.100000,-0.100000)" fill="#000000" stroke="none">
    <path d="M0 1255 l0 -1255 2035 0 2035 0 0 1255 0 1255 -2035 0 -2035 0 0 -1255z m2223 930 c243 -50 451 -213 565 -441 45 -90 62 -165 69 -304 9 -192 -28 -339 -122 -486 -128 -200 -371 -346 -595 -359 -41 -2 -65 -2 -52 1 12 3 22 9 22 14 0 5 -7 6 -17 3 -10 -4 -14 -2 -9 5 4 6 28 10 59 8 85 -4 268 55 332 108 11 9 -10 1 -46 -19 -36 -19 -69 -35 -73 -35 -4 0 32 27 81 59 48 33 115 88 148 123 33 34 43 47 21 28 -26 -24 -35 -28 -28 -14 6 11 18 27 27 34 46 38 132 204 161 310 27 98 25 291 -4 393 -76 270 -278 460 -553 523 -107 24 -267 16 -374 -20 -291 -99 -486 -350 -512 -661 -3 -44 -8 -74 -11 -67 -2 6 -8 9 -14 6 -8 -5 -8 16 -3 67 5 41 9 88 9 106 1 17 4 29 9 26 4 -2 7 2 8 9 4 84 45 178 124 282 92 123 198 206 333 261 130 53 306 69 445 40z m-497 -533 c-7 -11 -46 -210 -46 -233 0 -17 8 -19 69 -19 l68 0 17 88 c20 104 35 152 45 152 5 0 1 -39 -9 -87 -31 -156 -31 -153 -15 -153 23 0 72 53 79 85 18 75 27 105 35 105 5 0 1 -33 -10 -72 -10 -40 -19 -74 -19 -75 0 -2 7 -3 15 -3 17 0 20 -16 5 -25 -5 -3 -10 -1 -10 6 0 21 -17 -3 -24 -33 -5 -23 -3 -28 11 -28 16 0 15 -3 -4 -18 -14 -11 -28 -41 -39 -87 -10 -38 -19 -64 -22 -57 -2 7 1 33 7 57 15 59 14 65 -9 65 -23 0 -27 29 -8 48 9 9 8 12 -4 12 -9 0 -19 -8 -22 -17 -15 -53 -37 -198 -32 -218 4 -14 0 -28 -9 -35 -13 -11 -15 -7 -15 26 0 22 -8 51 -18 67 -20 29 -100 93 -108 85 -2 -3 -5 -26 -6 -51 -3 -67 -18 -58 -18 11 l0 58 -45 22 c-25 12 -45 26 -45 30 0 12 47 32 76 32 30 0 38 18 59 133 18 101 30 137 45 137 6 0 9 -4 6 -8z m380 -38 c-3 -8 -15 -52 -26 -97 -12 -45 -23 -91 -26 -102 -3 -11 17 17 45 62 56 89 100 133 136 133 65 0 56 -74 -15 -128 -55 -41 -60 -52 -27 -52 12 0 35 -7 51 -15 51 -27 82 -20 114 28 64 91 175 177 230 177 27 0 49 -27 34 -42 -9 -9 -12 -8 -12 5 0 49 -109 -10 -195 -106 -61 -67 -115 -165 -115 -208 0 -32 40 -69 77 -69 37 0 132 36 170 66 39 30 58 25 22 -6 -37 -31 -119 -69 -165 -76 -50 -7 -100 15 -114 52 l-10 25 -34 -35 c-61 -65 -202 -112 -279 -92 -46 11 -42 51 11 108 19 21 34 66 68 205 24 98 43 179 44 181 0 1 5 2 11 2 6 0 8 -7 5 -16z m-603 -752 c29 -30 74 -72 100 -93 27 -22 46 -39 42 -39 -14 0 -134 103 -167 143 -43 54 -108 150 -108 161 0 5 18 -19 41 -54 22 -34 63 -87 92 -118z m1052 -12 c-3 -5 -16 -15 -28 -21 -22 -12 -22 -12 -3 10 19 21 43 30 31 11z m-909 -81 c3 -6 -5 -3 -20 6 -14 10 -26 19 -26 22 0 7 39 -17 46 -28z m145 -79 c4 0 20 -5 36 -12 15 -6 32 -10 36 -9 5 1 6 -3 2 -9 -5 -8 -11 -8 -20 0 -8 7 -19 9 -25 5 -5 -3 -10 -1 -10 4 0 6 -11 11 -24 11 -13 0 -29 7 -36 15 -7 8 -18 15 -25 15 -7 0 -19 8 -26 17 -10 12 2 8 35 -10 27 -15 52 -27 57 -27z m54 -50 c13 -6 15 -9 5 -9 -8 0 -22 4 -30 9 -18 12 -2 12 25 0z m52 -16 c-3 -3 -12 -4 -19 -1 -8 3 -5 6 6 6 11 1 17 -2 13 -5z m-1517 -223 c0 -6 -4 -13 -10 -16 -5 -3 -10 -15 -10 -26 0 -16 7 -19 40 -19 35 0 40 3 40 23 0 13 -5 28 -12 35 -9 9 -5 12 18 12 l29 0 0 -80 0 -80 -29 0 c-23 0 -27 3 -18 12 7 7 12 22 12 35 0 20 -5 23 -40 23 -33 0 -40 -3 -40 -19 0 -11 5 -23 10 -26 20 -12 9 -25 -20 -25 -27 0 -30 2 -20 19 13 25 13 108 0 116 -20 12 -9 25 20 25 17 0 30 -4 30 -9z m278 -71 l38 -80 -28 0 c-22 0 -28 4 -26 18 2 13 -5 18 -35 20 -35 3 -38 1 -32 -17 5 -17 2 -21 -18 -21 l-23 0 32 68 c18 37 33 73 34 80 1 31 23 5 58 -68z m134 15 c-3 -43 0 -70 8 -80 11 -13 7 -15 -26 -15 -30 0 -35 3 -26 12 7 7 12 37 12 68 0 31 -5 61 -12 68 -9 9 -5 12 18 12 l30 0 -4 -65z m173 45 c16 -18 16 -21 2 -43 -15 -23 -14 -26 14 -61 41 -48 12 -50 -32 -1 -18 19 -36 35 -41 35 -12 0 -10 -44 4 -58 9 -9 3 -12 -27 -12 -30 0 -36 3 -27 12 7 7 12 37 12 68 0 31 -5 61 -12 68 -9 9 -1 12 38 12 38 0 55 -5 69 -20z m275 5 c0 -11 -7 -14 -25 -9 -18 4 -25 2 -25 -8 0 -26 59 -97 85 -104 14 -3 25 -10 25 -15 0 -12 -27 -11 -49 1 -12 6 -29 5 -49 -2 -27 -10 -34 -9 -51 7 -26 23 -26 40 -1 58 13 9 18 20 14 31 -4 10 1 25 11 36 22 24 65 27 65 5z m292 4 c16 -8 19 -17 14 -40 -3 -15 -1 -31 4 -34 17 -11 11 -54 -9 -65 -11 -5 -41 -10 -67 -10 -37 0 -45 3 -36 12 16 16 16 120 0 136 -16 16 64 17 94 1z m198 -3 c0 -11 -9 -13 -35 -9 -33 5 -35 4 -35 -22 0 -25 3 -27 30 -23 17 3 30 3 30 2 0 -21 -16 -33 -36 -28 -21 5 -24 3 -24 -20 0 -22 4 -26 28 -26 15 0 34 6 41 13 10 10 12 8 9 -8 -3 -17 -12 -20 -68 -23 -52 -2 -63 -1 -52 9 16 17 16 121 0 137 -9 9 2 12 50 12 47 0 62 -3 62 -14z m180 -58 c19 -40 36 -76 38 -80 2 -5 -10 -8 -26 -8 -25 0 -29 3 -25 20 5 17 0 20 -32 20 -32 0 -37 -3 -32 -20 4 -16 0 -20 -18 -20 l-24 0 28 63 c16 34 31 70 35 80 10 31 22 18 56 -55z m142 60 c-15 -15 -16 -67 -2 -103 8 -21 16 -26 38 -23 26 3 27 4 27 71 0 64 1 67 25 67 19 0 21 -3 12 -12 -7 -7 -12 -36 -12 -64 0 -61 -17 -84 -60 -84 -37 0 -58 22 -65 68 -3 20 -8 49 -10 65 -4 25 -2 27 27 27 25 0 29 -3 20 -12z m298 -3 c0 -11 -8 -13 -30 -8 l-30 6 0 -58 c0 -43 4 -61 18 -71 15 -12 12 -13 -27 -14 -35 0 -42 3 -33 12 17 17 16 128 -1 128 -7 0 -18 -5 -25 -12 -9 -9 -12 -7 -12 10 0 21 5 22 70 22 55 0 70 -3 70 -15z m100 -2 c0 -10 7 -26 14 -36 13 -17 15 -17 30 4 11 17 13 26 4 36 -8 10 -4 13 21 13 l31 0 -30 -42 c-31 -43 -39 -85 -18 -106 9 -9 3 -12 -27 -12 -30 0 -36 3 -27 12 21 21 13 55 -23 102 l-35 46 30 0 c22 0 30 -5 30 -17z m348 -1 c3 -10 -4 -12 -32 -7 -44 9 -66 -6 -66 -45 0 -36 44 -74 77 -65 13 3 23 1 23 -5 0 -15 -50 -24 -79 -14 -83 30 -52 160 36 152 20 -2 38 -9 41 -16z m199 -8 c21 -21 24 -32 19 -62 -11 -70 -83 -96 -131 -47 -50 49 -15 135 55 135 20 0 40 -9 57 -26z m174 16 c23 -13 26 -58 3 -67 -12 -4 -8 -13 22 -44 34 -35 36 -39 17 -39 -13 0 -33 14 -49 35 -14 19 -30 35 -35 35 -13 0 -11 -44 3 -58 9 -9 3 -12 -27 -12 -30 0 -36 3 -27 12 15 15 16 102 2 129 -10 17 -7 19 30 19 23 0 50 -5 61 -10z m176 -42 l53 -52 0 40 c0 22 -5 45 -12 52 -9 9 -4 12 22 12 26 0 31 -3 22 -12 -7 -7 -12 -41 -12 -82 l0 -70 -55 54 -55 54 0 -40 c0 -22 5 -45 12 -52 9 -9 5 -12 -21 -12 -29 0 -32 2 -21 15 9 11 11 36 8 80 -3 36 -3 65 0 65 4 0 30 -23 59 -52z m253 32 c0 -17 -3 -18 -19 -9 -25 16 -51 5 -51 -22 0 -18 5 -21 30 -17 17 3 30 3 30 2 0 -19 -15 -30 -36 -26 -22 4 -25 2 -22 -19 3 -26 42 -39 61 -20 18 18 28 12 17 -9 -9 -17 -21 -20 -73 -20 -39 0 -57 4 -48 9 10 6 12 27 9 80 l-4 71 53 0 c46 0 53 -3 53 -20z m171 1 c22 -18 22 -20 7 -43 -16 -24 -15 -27 13 -62 26 -31 28 -36 12 -36 -10 0 -31 16 -46 35 -15 19 -32 35 -37 35 -14 0 -12 -44 2 -58 9 -9 3 -12 -27 -12 -30 0 -36 3 -27 12 16 16 16 120 0 136 -21 21 76 15 103 -7z m-2493 -62 c-2 -6 -7 -10 -11 -10 -4 1 -14 1 -23 1 -8 0 -12 5 -9 10 8 13 48 13 43 -1z" style="fill: rgb(54, 88, 56);"/>
    <path d="M2831 1404 c0 -11 3 -14 6 -6 3 7 2 16 -1 19 -3 4 -6 -2 -5 -13z" style="fill: rgb(54, 88, 56);"/>
    <path d="M2822 1290 c0 -14 2 -19 5 -12 2 6 2 18 0 25 -3 6 -5 1 -5 -13z" style="fill: rgb(54, 88, 56);"/>
    <path d="M2801 1193 c-1 -6 -4 -20 -7 -30 -5 -17 -5 -17 6 0 6 10 9 23 6 30 -3 9 -5 9 -5 0z" style="fill: rgb(54, 88, 56);"/>
    <path d="M2776 1115 c-9 -26 -7 -32 5 -12 6 10 9 21 6 23 -2 3 -7 -2 -11 -11z" style="fill: rgb(54, 88, 56);"/>
    <path d="M2644 888 l-19 -23 23 19 c21 18 27 26 19 26 -2 0 -12 -10 -23 -22z" style="fill: rgb(54, 88, 56);"/>
    <path d="M2559 803 l-24 -28 28 24 c15 14 27 26 27 28 0 8 -8 1 -31 -24z" style="fill: rgb(54, 88, 56);"/>
    <path d="M2509 763 c-13 -16 -12 -17 4 -4 16 13 21 21 13 21 -2 0 -10 -8 -17 -17z" style="fill: rgb(54, 88, 56);"/>
    <path d="M1666 1358 c-11 -41 -6 -53 24 -72 17 -9 45 -33 63 -51 l34 -35 11 78 c7 42 12 83 12 90 0 8 -20 12 -69 12 -63 0 -69 -2 -75 -22z" style="fill: rgb(54, 88, 56);"/>
    <path d="M1885 1360 c-15 -17 -16 -20 -3 -20 9 0 18 9 21 20 3 11 4 20 3 20 -2 0 -11 -9 -21 -20z" style="fill: rgb(54, 88, 56);"/>
    <path d="M1577 1361 c-15 -6 -12 -9 18 -24 45 -21 42 -22 47 8 5 22 2 25 -21 24 -14 0 -34 -4 -44 -8z" style="fill: rgb(54, 88, 56);"/>
    <path d="M2209 1586 c-32 -16 -92 -97 -133 -181 -60 -121 -60 -120 36 -75 46 21 95 42 111 45 28 7 36 23 15 30 -7 2 -30 6 -50 10 -21 3 -38 11 -38 16 0 6 25 34 55 63 54 51 70 88 41 99 -7 3 -24 0 -37 -7z" style="fill: rgb(54, 88, 56);"/>
    <path d="M2293 1375 c-8 -22 6 -33 17 -15 13 20 12 30 0 30 -6 0 -13 -7 -17 -15z" style="fill: rgb(54, 88, 56);"/>
    <path d="M2180 1343 c-115 -47 -154 -75 -164 -116 -11 -43 -31 -51 -23 -10 l5 28 -24 -29 c-40 -46 -29 -61 46 -64 57 -2 73 1 130 30 78 40 122 91 124 145 1 48 -11 50 -94 16z" style="fill: rgb(54, 88, 56);"/>
    <path d="M597 346 c-11 -28 -8 -36 13 -36 23 0 25 9 7 34 -13 18 -14 18 -20 2z" style="fill: rgb(54, 88, 56);"/>
    <path d="M900 361 c0 -24 3 -28 20 -24 11 3 23 9 25 13 9 15 -7 40 -26 40 -14 0 -19 -7 -19 -29z" style="fill: rgb(54, 88, 56);"/>
    <path d="M1163 304 c-7 -20 11 -38 32 -30 13 4 14 10 5 26 -13 24 -28 26 -37 4z" style="fill: rgb(54, 88, 56);"/>
    <path d="M1480 365 c0 -20 4 -26 18 -23 9 2 17 12 17 23 0 11 -8 21 -17 23 -14 3 -18 -3 -18 -23z" style="fill: rgb(54, 88, 56);"/>
    <path d="M1480 300 c0 -25 4 -30 25 -30 20 0 25 5 25 24 0 22 -16 36 -41 36 -5 0 -9 -13 -9 -30z" style="fill: rgb(54, 88, 56);"/>
    <path d="M1851 340 c-9 -28 -8 -30 14 -30 22 0 23 2 14 30 -6 17 -12 30 -14 30 -2 0 -8 -13 -14 -30z" style="fill: rgb(54, 88, 56);"/>
    <path d="M2902 378 c-18 -18 -14 -73 6 -91 37 -33 82 -15 82 33 0 54 -55 91 -88 58z" style="fill: rgb(54, 88, 56);"/>
    <path d="M3120 362 c0 -25 3 -29 21 -25 25 7 22 46 -3 51 -14 3 -18 -3 -18 -26z" style="fill: rgb(54, 88, 56);"/>
    <path d="M3710 361 c0 -24 3 -28 20 -24 11 3 23 9 25 13 9 15 -7 40 -26 40 -14 0 -19 -7 -19 -29z" style="fill: rgb(54, 88, 56);"/>
  </g>
</svg>